# AST/ASF file generated using VICON BodyLanguage
# -----------------------------------------------
:version 1.10
:name VICON
:units
  mass 1.0
  length 0.45
  angle deg
:documentation
   .ast/.asf automatically generated from VICON data using
   VICON BodyBuilder and BodyLanguage model FoxedUp or BRILLIANT.MOD
:root
   order TX TY TZ RX RY RZ
   axis XYZ
   position 0 0 0  
   orientation 0 0 0 
:bonedata
  begin
     id 1 
     name lhipjoint
     direction 0.710087 -0.641647 0.289942 
     length 2.79038 
     axis 0 0 0  XYZ
  end
  begin
     id 2 
     name lfemur
     direction 0.34202 -0.939693 0  
     length 7.2706  
     axis 0 0 20  XYZ
    dof rx ry rz
    limits (-160.0 20.0)
           (-70.0 70.0)
           (-60.0 70.0)
  end
  begin
     id 3 
     name ltibia
     direction 0.34202 -0.939693 0   
     length 7.86328   
     axis 0 0 20   XYZ
    dof rx
    limits (-10.0 170.0)
  end
  begin
     id 4 
     name lfoot
     direction 0.0541246 -0.148706 0.987399   
     length 2.37542   
     axis -90 7.62852e-016 20   XYZ
    dof rx rz
    limits (-45.0 90.0)
           (-70.0 20.0)
  end
  begin
     id 5 
     name ltoes
     direction 1.53554e-011 -4.21866e-011 1   
     length 1.19593   
     axis -90 7.62852e-016 20   XYZ
    dof rx
    limits (-90.0 20.0)
  end
  begin
     id 6 
     name rhipjoint
     direction -0.675762 -0.671724 0.303533   
     length 2.66544  
     axis 0 0 0  XYZ 
  end
  begin
     id 7 
     name rfemur
     direction -0.34202 -0.939693 0   
     length 8.11844   
     axis 0 0 -20   XYZ
    dof rx ry rz
    limits (-160.0 20.0)
           (-70.0 70.0)
           (-70.0 60.0)
  end
  begin
     id 8 
     name rtibia
     direction -0.34202 -0.939693 0   
     length 7.97082   
     axis 0 0 -20   XYZ
    dof rx
    limits (-10.0 170.0)
 end
 begin
     id 9 
     name rfoot
     direction -0.0726228 -0.199474 0.977208   
     length 2.19677  
     axis -90 -7.62852e-016 -20   XYZ
    dof rx rz
    limits (-45.0 90.0)
           (-20.0 70.0)
  end
  begin
     id 10 
     name rtoes
     direction -1.53508e-011 -4.21913e-011 1   
     length 1.10438   
     axis -90 -7.62852e-016 -20   XYZ
    dof rx
    limits (-90.0 20.0)
  end
  begin
     id 11 
     name lowerback
     direction -0.00404436 0.999673 -0.0252643   
     length 2.03972   
     axis 0 0 0   XYZ
    dof rx ry rz
    limits (-20.0 45.0)
           (-30.0 30.0)
           (-30.0 30.0)
  end
  begin
     id 12 
     name upperback
     direction 0.00744643 0.999969 0.00242763   
     length 2.04273   
     axis 0 0 0   XYZ
    dof rx ry rz
    limits (-20.0 45.0)
           (-30.0 30.0)
           (-30.0 30.0)
  end
  begin
     id 13 
     name thorax
     direction 0.00846113 0.999862 0.0143204   
     length 2.03752   
     axis 0 0 0   XYZ
    dof rx ry rz
    limits (-20.0 45.0)
           (-30.0 30.0)
           (-30.0 30.0)
  end
  begin
     id 14 
     name lowerneck
     direction 0.0328213 0.990857 0.130862   
     length 1.37497   
     axis 0 0 0   XYZ
    dof rx ry rz
    limits (-20.0 45.0)
           (-30.0 30.0)
           (-30.0 30.0)
  end
  begin
     id 15 
     name upperneck
     direction -0.0302832 0.999496 0.00956452   
     length 1.35926   
     axis 0 0 0   XYZ
    dof rx ry rz
    limits (-20.0 45.0)
           (-30.0 30.0)
           (-30.0 30.0)
  end
  begin
     id 16
     name head
     direction -0.0130455 0.999856 -0.0108809  
     length 1.44454  
     axis 0 0 0   XYZ
    dof rx ry rz
    limits (-20.0 45.0)
           (-30.0 30.0)
           (-30.0 30.0)
  end
  begin
     id 17 
     name lclavicle
     direction 0.952957 0.278766 0.119006  
     length 3.10112  
     axis 0 0 0   XYZ
    dof ry rz
    limits (-20.0 10.0)
           (0.0 20.0)
  end
  begin
     id 18 
     name lhumerus
     direction 1 -4.48972e-011 -1.63238e-028   
     length 5.82845   
     axis -180 -30 -90   XYZ
    dof rx ry rz
    limits (-60.0 90.0)
           (-90.0 90.0)
           (-90.0 90.0)
  end
  begin
     id 19
     name lradius
     direction 1 -4.48959e-011 1.45401e-026   
     length 3.49691   
     axis -180 -30 -90   XYZ
    dof rx
    limits (-10.0 170.0)
  end
  begin
     id 20
     name lwrist
     direction 1 -4.48945e-011 2.98015e-026   
     length 1.74845   
     axis -1.7599e-014 90 90   XYZ
    dof ry
    limits (-180.0 0.0)
 end
  begin
     id 21 
     name lhand
     direction 1 -4.4902e-011 5.9603e-026   
     length 0.674998   
     axis -3.80318e-014 90 90   XYZ
    dof rx rz
    limits (-90.0 90.0)
           (-45.0 45.0)
  end
  begin
     id 22 
     name lfingers
     direction 1 -4.48979e-011 1.19206e-025   
     length 0.544201   
     axis -7.60636e-014 90 90   XYZ
    dof rx
    limits (0.0 90.0)
  end
  begin
     id 23
     name lthumb
     direction 0.707107 -6.34941e-011 0.707107   
     length 0.781367   
     axis -90 45 2.85299e-015   XYZ
    dof rx rz
    limits (-45.0 45.0)
           (-45.0 45.0)
  end
  begin
     id 24 
     name rclavicle
     direction -0.967632 0.241887 0.0719654   
     length 3.53012  
     axis 0 0 0   XYZ 
    dof ry rz
    limits (-10.0 20.0)
           (-20.0 0.0)
  end
  begin
     id 25 
     name rhumerus
     direction -1 -4.4897e-011 6.87619e-028  
     length 5.45859   
     axis -180 30 90   XYZ
    dof rx ry rz
    limits (-90.0 60.0)
           (-90.0 90.0)
           (-90.0 90.0)
  end
  begin
     id 26 
     name rradius
     direction -1 -4.48967e-011 1.68055e-026   
     length 3.58491   
     axis -180 30 90   XYZ
    dof rx
    limits (-10.0 170.0)
  end
  begin
     id 27 
     name rwrist
     direction -1 -4.48976e-011 2.98015e-026   
     length 1.79245   
     axis -1.7599e-014 -90 -90   XYZ
    dof ry
    limits (-180.0 0.0)
  end
  begin
     id 28
     name rhand
     direction -1 -4.48996e-011 5.9603e-026   
     length 0.683735   
     axis -3.80318e-014 -90 -90   XYZ
    dof rx rz
    limits (-90.0 90.0)
           (-45.0 45.0)
  end
  begin
     id 29
     name rfingers
     direction -1 -4.48924e-011 1.19206e-025   
     length 0.551245   
     axis -7.60636e-014 -90 -90   XYZ
    dof rx
    limits (0.0 90.0)
  end
  begin
     id 30
     name rthumb
     direction -0.707107 -6.3492e-011 0.707107   
     length 0.791481   
     axis -90 -45 -2.85299e-015   XYZ
    dof rx rz
    limits (-45.0 45.0)
           (-45.0 45.0)
  end
:hierarchy
  begin
    root lhipjoint rhipjoint lowerback
    lhipjoint lfemur
    lfemur ltibia
    ltibia lfoot
    lfoot ltoes
    rhipjoint rfemur
    rfemur rtibia
    rtibia rfoot
    rfoot rtoes
    lowerback upperback
    upperback thorax
    thorax lowerneck lclavicle rclavicle
    lowerneck upperneck
    upperneck head
    lclavicle lhumerus
    lhumerus lradius
    lradius lwrist
    lwrist lhand lthumb
    lhand lfingers
    rclavicle rhumerus
    rhumerus rradius
    rradius rwrist
    rwrist rhand rthumb
    rhand rfingers
  end

#!OML:ASF F:\VICON\USERDATA\INSTALL\rory3\rory3.ASF
:FULLY-SPECIFIED
:DEGREES
677
root -0.61146 18.1002 -30.6954 3.42924 -5.61225 -2.45328
lowerback -8.81149 2.28227 2.96957
upperback -4.36989 2.81612 -1.75893
thorax 0.634297 1.3505 -3.22319
lowerneck -5.56865 2.77373 8.94677
upperneck 4.5441 3.43497 -7.41209
head 2.53712 1.63285 -3.55517
rclavicle 3.27995e-014 -2.38542e-015
rhumerus 46.4299 4.2348 -57.1726
rradius 45.7123
rwrist -7.14331
rhand -11.2719 27.0483
rfingers 7.12502
rthumb 14.7585 -2.40631
lclavicle 3.27995e-014 -2.38542e-015
lhumerus -14.7523 -25.7884 70.5323
lradius 89.9839
lwrist 61.4194
lhand -24.0102 427.456
lfingers 7.12502
lthumb -177.532 82.5789
rfemur -15.8925 11.4789 22.464
rtibia 41.579
rfoot -34.3918 -9.32061
rtoes 4.23896
lfemur -4.79411 -8.91988 -17.6358
ltibia 21.696
lfoot -16.828 13.5082
ltoes -8.36671
678
root -0.631378 18.099 -30.7137 3.3887 -4.56099 -2.53755
lowerback -8.33814 2.45749 3.02018
upperback -4.45136 3.06487 -2.17958
thorax 0.333583 1.46538 -3.68426
lowerneck -6.28273 2.23095 8.63993
upperneck 4.48648 2.59507 -6.15444
head 2.83117 1.2544 -3.50423
rclavicle 4.47266e-014 -1.51076e-014
rhumerus 45.3615 3.18306 -60.331
rradius 47.4169
rwrist -3.24411
rhand -5.37216 24.0028
rfingers 7.12502
rthumb 20.4358 -4.94177
lclavicle 4.47266e-014 -1.51076e-014
lhumerus -14.3929 -27.0001 70.7135
lradius 89.8487
lwrist 59.9974
lhand -22.5062 425.972
lfingers 7.12502
lthumb -176.08 84.0847
rfemur -15.7449 10.9117 22.7085
rtibia 41.5012
rfoot -34.6943 -9.52327
rtoes 4.58757
lfemur -5.22967 -8.8426 -17.3121
ltibia 21.9905
lfoot -16.3931 12.7071
ltoes -8.94289
679
root -0.650908 18.0977 -30.7308 3.31454 -3.61614 -2.4848
lowerback -7.83512 2.60718 2.5687
upperback -4.51971 3.30837 -2.29417
thorax -0.00963499 1.58731 -3.55012
lowerneck -6.49437 1.71535 7.96562
upperneck 4.21779 1.90263 -5.5413
head 2.69206 0.91057 -3.18702
rclavicle 1.27222e-014 5.56597e-015
rhumerus 44.8194 2.19464 -62.694
rradius 49.5238
rwrist 0.7009
rhand -7.28932 25.9431
rfingers 7.12502
rthumb 18.5925 -3.18837
lclavicle 1.27222e-014 5.56597e-015
lhumerus -14.4192 -28.1689 71.5396
lradius 89.9259
lwrist 60.3051
lhand -24.2729 426.95
lfingers 7.12502
lthumb -177.786 83.0814
rfemur -15.6004 10.276 22.7821
rtibia 41.4214
rfoot -34.7891 -9.5271
rtoes 4.67399
lfemur -5.58873 -9.13992 -17.2073
ltibia 22.2855
lfoot -16.3248 12.1927
ltoes -8.55928
680
root -0.665606 18.099 -30.7406 3.30602 -2.6773 -2.6431
lowerback -7.49003 2.71714 2.15938
upperback -4.50329 3.48662 -2.08956
thorax -0.202937 1.6836 -3.10907
lowerneck -6.58058 1.32568 7.18385
upperneck 3.749 1.42848 -5.46984
head 2.49746 0.658026 -3.02775
rclavicle 3.45885e-014 -1.03368e-014
rhumerus 44.666 1.35688 -64.6776
rradius 52.109
rwrist 4.08247
rhand -7.30421 27.2791
rfingers 7.12502
rthumb 18.5782 -1.85369
lclavicle 3.45885e-014 -1.03368e-014
lhumerus -14.5806 -28.7763 72.7111
lradius 89.9253
lwrist 59.9064
lhand -25.1111 426.769
lfingers 7.12502
lthumb -178.596 83.2554
rfemur -15.4573 9.7277 23.063
rtibia 41.3171
rfoot -35.0747 -9.55683
rtoes 5.09905
lfemur -5.9389 -9.60458 -16.9068
ltibia 22.5456
lfoot -16.2005 11.9526
ltoes -9.07553
681
root -0.675804 18.0993 -30.7526 3.26956 -1.71312 -2.86777
lowerback -7.12425 2.79225 1.68527
upperback -4.41117 3.6195 -1.65533
thorax -0.354574 1.76275 -2.40093
lowerneck -6.67276 0.97117 6.52011
upperneck 3.25964 1.0261 -6.09726
head 2.32201 0.425655 -3.1297
rclavicle 1.94809e-014 -1.51076e-014
rhumerus 44.7171 1.13591 -65.8473
rradius 55.2265
rwrist 5.93402
rhand -7.30573 28.3627
rfingers 7.12502
rthumb 18.5768 -0.770295
lclavicle 1.94809e-014 -1.51076e-014
lhumerus -14.7361 -28.8885 74.0883
lradius 89.8235
lwrist 59.1533
lhand -24.9194 426.764
lfingers 7.12502
lthumb -178.411 83.2617
rfemur -15.3111 9.19095 23.393
rtibia 41.2083
rfoot -35.3085 -9.46525
rtoes 6.82374
lfemur -6.22458 -10.2699 -16.5797
ltibia 22.7213
lfoot -15.7544 12.153
ltoes -11.538
682
root -0.683041 18.1057 -30.7579 3.42922 -0.76443 -3.09237
lowerback -6.99325 2.88943 1.09144
upperback -4.44322 3.78309 -1.11001
thorax -0.523914 1.86037 -1.50635
lowerneck -6.49732 0.679895 5.92648
upperneck 2.88711 0.727234 -6.99122
head 2.14952 0.247184 -3.33195
rclavicle 3.37934e-015 -4.77083e-015
rhumerus 44.5915 1.46357 -66.0119
rradius 58.6575
rwrist 6.81072
rhand -7.614 28.6389
rfingers 7.12502
rthumb 18.2802 -0.522156
lclavicle 3.37934e-015 -4.77083e-015
lhumerus -15.2282 -28.9126 75.686
lradius 89.6922
lwrist 58.3929
lhand -24.5032 426.811
lfingers 7.12502
lthumb -178.009 83.2188
rfemur -15.3737 8.75036 23.6614
rtibia 41.076
rfoot -35.6689 -9.34659
rtoes 8.41433
lfemur -6.68683 -10.796 -16.2085
ltibia 22.8408
lfoot -15.6158 11.9839
ltoes -12.7516
683
root -0.687326 18.1155 -30.7596 3.75591 0.0890864 -3.0166
lowerback -7.18037 3.0836 0.359827
upperback -4.50531 4.08179 -0.806351
thorax -0.546663 2.02765 -0.760543
lowerneck -6.14827 0.402735 5.57165
upperneck 2.56205 0.423982 -7.82306
head 1.962 0.078773 -3.55757
rclavicle -1.61016e-014 -3.18055e-015
rhumerus 44.276 1.58662 -65.8436
rradius 62.0101
rwrist 7.22796
rhand -7.78817 28.6522
rfingers 7.12502
rthumb 18.1126 -0.52449
lclavicle -1.61016e-014 -3.18055e-015
lhumerus -15.6916 -29.3293 76.9656
lradius 89.7054
lwrist 58.369
lhand -25.1182 427.712
lfingers 7.12502
lthumb -178.603 82.3133
rfemur -15.662 8.30886 23.5863
rtibia 40.9916
rfoot -35.7527 -10.0033
rtoes 6.74423
lfemur -7.25197 -11.3954 -16.1739
ltibia 22.8294
lfoot -15.3401 12.1862
ltoes -13.6672
